<svg xmlns="http://www.w3.org/2000/svg" xmlns:xlink="http://www.w3.org/1999/xlink" width="164" zoomAndPan="magnify" viewBox="0 0 123 112.499997" height="150" preserveAspectRatio="xMidYMid meet" version="1.0"><defs><clipPath id="6c3c2e50fa"><path d="M 25.789062 1.0625 L 97.46875 1.0625 L 97.46875 110.824219 L 25.789062 110.824219 Z M 25.789062 1.0625 " clip-rule="nonzero"/></clipPath></defs><g clip-path="url(#6c3c2e50fa)"><path fill="#dd2c00" d="M 97.46875 75.148438 C 97.46875 94.902344 81.480469 110.816406 61.628906 110.816406 C 41.78125 110.816406 25.789062 94.902344 25.789062 75.148438 C 25.789062 55.394531 61.628906 1.066406 61.628906 1.066406 C 61.628906 1.066406 97.46875 55.394531 97.46875 75.148438 Z M 97.46875 75.148438 " fill-opacity="1" fill-rule="nonzero"/></g><path fill="#ffccbc" d="M 61.628906 97.097656 C 49.5 97.097656 39.574219 87.222656 39.574219 75.148438 C 39.574219 72.128906 42.054688 69.660156 45.089844 69.660156 C 48.121094 69.660156 50.601562 72.128906 50.601562 75.148438 C 50.601562 81.183594 55.566406 86.125 61.628906 86.125 C 64.664062 86.125 67.144531 88.59375 67.144531 91.609375 C 67.144531 94.628906 64.664062 97.097656 61.628906 97.097656 Z M 61.628906 97.097656 " fill-opacity="1" fill-rule="nonzero"/></svg>